PathFileType	4	(X/Y/Z)	C:/Users/beibeiliu/ov580/test_trc\sequence.28_training_dense_right.trc
DataRate	CameraRate	NumFrames	NumMarkers	Units	OrigDataRate	OrigDataStartFrame	OrigNumFrames
120	120	24	19	mm	120	1	333
Frame#	Time	ThumbCMC			ThumbMCP			ThumbIP			ThumbTip			IndexMCP			IndexPIP			IndexTip			MiddleMCP			MiddlePIP			MiddleTip			RingMCP			RingPIP			RingTip			PinkyMCP			PinkyPIP			PinkyTip			BackHand1			BackHand2			BackHand3	
		X0	Y0	Z0	X1	Y1	Z1	X2	Y2	Z2	X3	Y3	Z3	X4	Y4	Z4	X5	Y5	Z5	X6	Y6	Z6	X7	Y7	Z7	X8	Y8	Z8	X9	Y9	Z9	X10	Y10	Z10	X11	Y11	Z11	X12	Y12	Z12	X13	Y13	Z13	X14	Y14	Z14	X15	Y15	Z15	X16	Y16	Z16	X17	Y17	Z17	X18	Y18	Z18	
0	0	182.931	1.0061	58.6039	163.128	-12.6608	35.5774	159.367	-22.5432	13.177	157.573	-32.1169	-4.70402	200.003	8.63336	-5.57599	197.884	3.97846	-31.2304	193.479	3.80008	-49.4601	224.259	-0.474739	-7.63815	223.616	-1.35659	-31.4056	230.279	-5.65061	-55.8888	236.484	-11.5453	0.624832	241.204	-13.8484	-21.6568	247.926	-16.5238	-41.7794	247.246	-23.328	15.5182	256.166	-26.7425	0.168487	266.378	-27.2415	-11.8716	232.853	-1.55047	42.8879	231.366	5.35335	69.5131	210.513	15.0354	53.0516	
1	0.00833333	181.048	1.03175	53.6323	166.568	-13.1524	37.401	161.177	-22.723	12.0729	154.051	-32.4751	-3.11152	199.271	7.96018	-5.3199	196.089	6.24804	-30.8393	196.476	1.13123	-52.6318	220.164	0.894108	-7.09145	222.916	-1.54352	-35.2999	229.823	-4.90959	-57.6539	234.603	-9.91834	-1.79683	243.744	-15.7437	-17.7484	246.036	-15.6763	-41.5468	245.874	-23.2836	16.1767	256.552	-26.6668	-0.73089	263.912	-26.0739	-17.1235	231.744	-1.90651	43.0979	230.524	4.20116	69.2394	209.994	15.9924	49.9963	
2	0.0166667	179.057	1.35588	58.8451	167.146	-13.9535	35.1897	159.278	-22.6532	12.8584	157.13	-31.934	-3.87667	199.447	7.64406	-5.57802	194.947	6.63584	-27.0028	196.647	1.28399	-49.2417	220.909	0.807362	-11.8737	222.604	-1.18541	-34.7068	230.036	-5.67881	-58.9168	236.564	-11.5951	0.270699	239.876	-14.1893	-18.3544	245.762	-17.0731	-40.0727	246.804	-22.3182	15.1153	254.818	-27.7008	1.56887	262.543	-26.2997	-13.0146	232.586	-2.19946	42.279	233.619	3.39318	66.9862	211.628	15.3719	51.8542	
3	0.025	178.265	1.38781	55.6908	163.843	-13.2514	37.2031	159.991	-22.8309	11.5095	154.991	-33.2338	-5.17239	197.357	8.70411	-3.95227	194.964	5.42781	-31.2413	197.48	0.293416	-50.8616	224.09	-1.05495	-9.09501	226.075	-3.6099	-35.0535	231.336	-7.83194	-56.6257	235.847	-10.2374	-1.46791	242.111	-14.6475	-21.9015	244.495	-17.2528	-40.9703	246.062	-22.7064	16.3896	252.844	-27.1972	3.04428	265.297	-27.2549	-15.6938	230.668	0.412828	41.9889	230.889	2.05745	69.6483	207.968	15.6682	47.9955	
4	0.0333333	177.587	2.25301	54.208	165.225	-13.4607	36.3359	159.377	-22.5871	12.8667	156.38	-33.7114	-5.53434	199.287	8.12082	-7.55542	195.095	6.68292	-28.1843	197.469	-0.268324	-49.8506	219.533	1.43607	-6.3787	223.797	-2.96336	-35.1562	228.488	-5.27859	-55.4154	233.784	-11.1735	3.2094	239.575	-13.7176	-22.9906	245.474	-16.4197	-42.1967	246.21	-24.1364	19.2516	255.483	-26.8104	-0.837274	265.022	-28.3227	-15.9955	230.514	-0.590756	45.3372	234.197	2.58789	69.9066	212.353	13.4723	52.4119	
5	0.0416667	178.218	0.974582	53.1547	167.419	-14.4611	35.8712	160.813	-23.2693	17.1574	156.78	-33.0607	-2.4046	196.128	8.68944	-6.344	198.734	3.94443	-30.2368	192.569	2.72616	-53.3925	221.701	0.470712	-6.40121	225.934	-2.44368	-31.4547	227.716	-4.50986	-54.0612	234.077	-9.86942	-0.507065	242.123	-14.0567	-19.253	242.6	-15.8718	-38.9829	248.887	-24.3646	16.1375	252.81	-25.7597	1.65355	267.743	-27.1955	-15.8257	234.164	-3.15384	42.9292	231.317	2.65914	66.7258	212.137	13.3647	48.3832	
6	0.05	179.771	-0.0699889	54.1523	163.228	-13.1538	36.0359	156.569	-22.555	12.9409	153.104	-33.3683	-3.54016	196.86	8.56356	-6.76962	193.621	6.78782	-31.1816	196.971	1.21519	-51.8599	219.306	2.79302	-8.27607	223.465	-0.903162	-32.1532	228.522	-4.23491	-56.1694	237.578	-10.4265	0.132104	242.713	-13.8512	-19.6337	245.706	-16.0634	-38.6392	245.527	-22.4351	17.2529	256.452	-28.016	0.333455	267.187	-27.5207	-16.9869	230.78	0.411495	45.0108	228.43	4.14202	68.4897	209.132	14.1906	48.6599	
7	0.0583333	177.502	0.522039	57.7127	163.369	-12.8595	34.985	157.61	-21.8282	13.2438	154.459	-32.2067	-6.81656	195.154	11.3309	-7.54762	196.312	6.12302	-33.1067	194.991	3.50851	-55.3678	220.907	2.21843	-10.2207	223.683	-0.0661017	-34.16	231.877	-4.09052	-60.1415	237.702	-10.3002	-1.07616	243.643	-13.1585	-21.3653	243.277	-12.8614	-39.844	245.431	-21.1346	17.8574	252.613	-24.7062	1.55135	266.56	-25.3425	-14.85	230.706	2.33342	40.1599	228.78	5.16899	69.9437	206.531	16.5003	51.0993	
8	0.0666667	180.831	0.681468	52.4625	163.37	-12.0719	34.5773	159.602	-20.4852	14.3771	154.707	-31.0955	-5.43515	197.13	11.4353	-9.00892	195.659	9.84048	-32.1127	196.296	5.63957	-51.1222	221.55	3.89467	-9.38075	224.671	0.898896	-36.7655	228.177	-0.654936	-55.1955	234.222	-6.7345	1.51434	239.91	-10.1843	-19.9855	245.45	-11.7114	-43.0341	247.249	-20.3883	15.6333	252.499	-23.4524	-2.47758	265.031	-26.3857	-13.7254	234.517	1.28492	41.6852	231.947	3.73995	66.6441	209.559	14.9642	51.8109	
9	0.075	177.807	3.37877	56.4569	163.091	-11.4913	33.0952	158.566	-19.11	12.9449	156.079	-29.5518	-8.65585	199.021	13.4093	-8.92924	193.399	12.6226	-28.8175	194.462	7.80107	-54.1302	219.035	8.21406	-12.6585	223.699	4.00382	-36.9074	227.032	3.4921	-56.5481	234.967	-5.20294	1.03944	238.766	-7.23956	-20.6785	243.253	-8.46533	-42.1699	248.822	-19.8722	15.4239	253.45	-21.5293	-2.0412	262.581	-19.972	-17.1375	228.493	2.26044	43.225	231.348	3.76374	65.2245	211.812	16.9635	52.6556	
10	0.0833333	180.832	4.08149	53.2964	162.011	-9.20407	29.8678	157.104	-19.0025	9.67095	159.27	-29.5367	-10.4654	196.519	17.0908	-5.28088	192.825	15.304	-32.744	196.419	11.1105	-51.4054	220.594	8.82022	-11.604	225.396	6.7407	-33.0219	228.092	4.8764	-57.121	237.156	-3.36222	-2.53427	240.52	-4.68872	-21.4853	243.871	-5.60648	-42.1736	248.89	-18.6707	14.7884	253.215	-18.7875	-2.62138	264.963	-17.194	-20.2765	228.863	3.82591	44.7873	230.478	6.55792	69.0862	209.894	16.3938	52.8685	
11	0.0916667	178.541	4.16134	57.3073	167.101	-8.66953	32.3664	160.662	-17.9455	6.07981	159.994	-28.6356	-13.4926	194.223	19.8655	-7.44516	193.941	17.7173	-31.7175	192.157	14.194	-54.1604	217.267	12.5477	-8.62033	223.18	10.6265	-34.8858	224.362	10.5731	-58.1781	236.226	-0.0282152	-1.93019	240.911	-2.50724	-21.4285	242.762	-2.12854	-44.8084	246.152	-12.8174	10.0285	255.432	-15.8128	-5.37375	265.102	-15.8263	-19.3184	231.452	5.00148	39.8815	229.596	6.85875	67.3691	206.593	19.7239	48.9172	
12	0.1	175.821	5.48475	55.9375	165.956	-8.66513	31.4681	160.931	-17.3772	11.0085	160.358	-26.5538	-10.0553	192.201	23.7234	-9.08864	191.918	20.1287	-31.1526	186.694	18.2085	-49.6227	216.337	16.4831	-13.4072	222.495	11.7289	-37.3647	224.133	10.8928	-58.6321	234.214	3.82444	-3.57394	241.543	0.910077	-24.8841	240.437	3.51498	-44.8399	247.874	-10.156	11.031	252.648	-10.9458	-5.12355	261.881	-9.64632	-20.9746	229.613	9.93448	41.3395	228.376	8.12565	66.4459	206.392	22.8624	53.1972	
13	0.108333	179.76	4.56339	53.4623	165.408	-10.3089	30.5506	163.038	-17.2989	9.30199	160.256	-27.3448	-8.91136	193.205	22.5626	-6.1197	190.332	21.4232	-30.4576	184.901	19.4814	-54.5349	218.573	16.2571	-8.87371	219.843	15.024	-33.7612	222.223	12.7895	-61.4895	235.654	5.42537	-4.59798	234.389	6.31636	-23.9022	239.801	5.32265	-41.6916	247.309	-8.27218	13.8312	253.979	-8.63204	-6.69641	258.987	-4.85447	-19.4559	227.828	10.6856	44.0006	228.435	10.3407	65.218	204.674	24.2073	53.5209	
14	0.116667	177.332	4.69466	53.0215	162.399	-11.275	31.6956	162.346	-18.198	8.88412	162.202	-27.7858	-14.8853	188.315	26.2186	-9.5585	187.065	22.2245	-32.5698	180.913	21.2927	-51.4191	211.979	20.2722	-11.5291	217.23	17.3407	-33.8206	217.131	14.818	-61.3031	234.531	8.85168	-3.63291	236.597	9.91148	-27.628	237.598	10.2719	-47.6771	245.278	-3.63312	11.9114	254.483	-4.37561	-3.21962	261.928	0.578802	-22.6539	229.961	12.3597	41.9928	226.021	14.0547	66.81	203.711	24.1738	49.5614	
15	0.125	175.402	6.18213	52.0961	165.747	-10.957	30.2402	162.053	-18.3636	8.41195	163.816	-26.8588	-11.9061	185.632	28.6094	-8.52252	181.948	25.3429	-32.4106	177.654	24.4241	-51.7774	210.931	22.7858	-14.4245	209.904	20.0905	-39.2322	211.074	15.9625	-61.1521	229.091	15.9597	-5.86961	237.34	13.9537	-23.8378	237.919	14.1856	-47.1071	245.986	2.32107	10.3453	253.221	1.95317	-5.31988	260.51	7.60592	-22.2397	230.537	17.2447	42.6155	229.369	17.4073	64.2699	202.567	25.8288	52.886	
16	0.133333	179.025	5.72519	52.6907	165.692	-10.7638	27.9681	167.514	-16.9838	3.81374	168.111	-26.587	-15.7517	184.582	30.5876	-9.47901	179.824	28.4606	-31.0249	180.377	26.1815	-54.6684	208.48	25.8351	-11.9865	208.012	20.3886	-37.5099	212.313	10.6434	-60.8539	228.053	18.8639	-2.09995	233.535	18.7074	-28.2413	234.568	18.9562	-49.5682	245.869	7.07244	12.1429	252.436	8.77217	-9.34383	260.541	14.9216	-24.26	227.816	21.6485	42.742	228.308	20.3731	67.399	202.428	27.1269	53.4491	
17	0.141667	176.285	6.56696	50.3959	170.813	-10.621	24.6491	166.682	-19.2264	5.22913	169.83	-26.4333	-14.5051	185.921	31.9457	-10.1768	182.141	30.3646	-32.0175	179.276	27.7573	-52.5148	209.753	25.1741	-15.9942	208.579	17.0747	-41.5728	205.789	5.57535	-62.9201	226.937	23.4288	-6.27091	234.671	21.3394	-30.8728	231.709	21.4616	-48.5865	245.23	13.334	7.09038	253.638	14.0021	-9.70006	263.895	19.9726	-19.9069	228.246	24.7965	41.6786	227.022	22.959	68.4792	198.328	29.3703	52.6711	
18	0.15	174.052	5.17802	54.0177	170.234	-11.0813	24.4515	167.792	-20.5056	5.06854	172.181	-27.6463	-17.6383	181.294	32.5439	-6.9009	180.121	31.8598	-29.0642	179.367	29.963	-55.0406	205.101	27.2681	-17.1962	208.159	17.8895	-37.988	208.71	-1.08456	-61.4942	230.16	24.6272	-3.01294	231.277	25.3945	-26.3664	230.941	23.5042	-49.8966	244.282	16.3053	10.5072	252.505	19.5891	-10.0472	261.107	23.6867	-19.502	222.869	28.0854	39.7124	222.568	23.856	65.4723	199.887	31.2403	51.8557	
19	0.158333	175.367	5.02607	50.2101	173.865	-10.7642	23.3345	173.347	-19.5391	5.0507	177.83	-27.9559	-18.2588	181.483	31.2918	-5.42419	177.676	31.8161	-30.3071	173.455	29.7551	-51.4966	208.996	26.6955	-17.5657	207.045	14.9589	-40.8182	205.911	-6.15236	-60.4433	228.445	27.9574	-8.38653	227.835	27.8461	-30.0729	229.489	24.2565	-53.6156	242.335	18.7889	9.677	251.615	22.292	-7.62244	258.023	32.3484	-24.3835	221.962	30.2873	37.0923	224.298	27.5445	62.3252	199.815	31.2045	53.0062	
20	0.166667	179.541	4.56704	47.9077	173.898	-13.1596	26.1483	172.621	-23.5915	1.80609	185.206	-26.5455	-17.5684	184.214	31.373	-9.1279	175.331	30.4288	-31.2617	172.668	27.5558	-53.4052	204.238	27.973	-14.8627	206.451	16.1951	-40.389	203.274	-11.362	-58.8251	225.958	30.0582	-8.97653	226.976	28.7819	-32.9408	231.45	24.6857	-51.1575	247.143	22.2352	7.99099	252.877	24.5926	-6.89416	260.946	33.4424	-22.884	226.864	30.927	40.8162	225.911	29.5257	64.3994	194.7	31.7768	46.741	
21	0.175	177.6	3.60368	46.2851	177.712	-14.4774	21.0452	176.276	-25.3766	-0.995784	186.526	-31.2456	-17.8731	180.33	30.9306	-13.3152	174.346	29.9502	-30.9541	171.485	25.6129	-58.7453	204.429	27.3118	-19.0936	202.225	11.4578	-43.9867	205.954	-14.0438	-56.6229	227.352	31.5269	-11.3101	227.69	29.3631	-30.7538	229.956	25.7183	-52.937	245.933	26.5173	4.35339	249.91	29.1756	-11.1564	256.891	37.9555	-25.512	220.039	32.5627	39.5866	222.925	29.8876	62.5885	197.868	32.4048	48.8428	
22	0.183333	178.74	0.644903	45.5204	179.679	-18.3421	23.3342	181.574	-26.4865	-3.47997	191.946	-33.0659	-21.4062	176.811	27.9938	-13.7609	173.595	24.844	-35.8218	172.128	22.4985	-57.4286	205.269	26.7721	-16.6934	206.46	11.8595	-43.1074	208.973	-18.1911	-54.7606	225.439	31.2571	-8.1686	224.956	30.872	-32.679	229.222	26.8763	-54.633	240.474	29.524	2.85603	249.9	32.6471	-9.80955	251.915	43.9332	-26.8223	217.692	34.606	33.8377	218.532	29.5692	63.3024	194.292	30.5151	44.3437	
23	0.191667	177.895	-5.5229	47.0637	182.808	-23.2792	21.4838	186.82	-30.2504	0.979141	193.794	-39.5253	-21.8093	177.468	23.2829	-10.917	169.25	19.5839	-35.7818	171.433	17.5101	-56.5822	198.361	24.8599	-17.1565	204.778	10.1031	-43.9197	210.943	-16.0474	-54.1848	220.415	31.2211	-11.1322	224.521	31.5579	-36.7999	222.468	25.705	-58.9303	238.741	32.6745	3.28506	241.944	36.3637	-8.73189	250.719	46.9234	-25.967	216.211	33.3583	32.3652	216.033	32.5446	62.1802	190.599	27.8469	47.7554	
